<svg xmlns="http://www.w3.org/2000/svg" viewBox="0 0 520 150" role="img" aria-labelledby="title desc">
  <title id="title">FORGE</title><desc id="desc">Emblema F geométrico dentro de escudo angular e wordmark FORGE.</desc>
  <defs>
    <linearGradient id="metal" x1="0" y1="0" x2="1" y2="1"><stop offset="0" stop-color="#EAE6F0"/><stop offset=".42" stop-color="#A78BFA"/><stop offset="1" stop-color="#6A2BE2"/></linearGradient>
    <linearGradient id="edge" x1="0" y1="0" x2="0" y2="1"><stop stop-color="#C026FF"/><stop offset="1" stop-color="#6A2BE2"/></linearGradient>
    <filter id="glow" x="-50%" y="-50%" width="200%" height="200%"><feGaussianBlur stdDeviation="4" result="blur"/><feMerge><feMergeNode in="blur"/><feMergeNode in="SourceGraphic"/></feMerge></filter>
  </defs>
  <g transform="translate(12 8)">
    <path d="M58 3 111 22 108 80 58 130 8 80 5 22Z" fill="#100B19" stroke="url(#edge)" stroke-width="3"/>
    <path d="M58 13 101 28 98 76 58 116 18 76 15 28Z" fill="none" stroke="#8B5CF6" stroke-opacity=".55" stroke-width="1.5"/>
    <path d="M36 34H83V47H50V59H77V72H50V94H36Z" fill="url(#metal)"/>
    <path d="M50 59H77L67 72H50Z" fill="#C026FF" opacity=".9"/>
    <path d="M25 103 58 122 91 103" fill="none" stroke="#00D4FF" stroke-opacity=".75" stroke-width="1.5"/>
  </g>
  <text x="142" y="82" fill="#EAE6F0" font-family="Arial,sans-serif" font-size="57" font-weight="900" letter-spacing="9">FORGE</text>
  <path d="M146 99H430" stroke="#6A2BE2" stroke-width="2"/>
  <text x="146" y="121" fill="#A1A1B5" font-family="Arial,sans-serif" font-size="10" font-weight="700" letter-spacing="4">CONECTE. JOGUE. EVOLUA.</text>
</svg>